<svg xmlns="http://www.w3.org/2000/svg" xmlns:xlink="http://www.w3.org/1999/xlink" width="92" height="92" viewBox="0 0 92 92"><defs><style>.a{fill:url(#a);}.b{fill:url(#b);}.c{fill:url(#c);}</style><linearGradient id="a" x1="-0.089" y1="-0.241" x2="1.187" y2="1.317" gradientUnits="objectBoundingBox"><stop offset="0" stop-color="#264ec6"/><stop offset="1" stop-color="#000e2f"/></linearGradient><linearGradient id="b" x1="0.5" y1="-0.182" x2="0.5" y2="1.249" gradientUnits="objectBoundingBox"><stop offset="0" stop-color="#fff"/><stop offset="1" stop-color="#051b5b"/></linearGradient><linearGradient id="c" x1="0.083" y1="0.117" x2="0.928" y2="0.962" gradientUnits="objectBoundingBox"><stop offset="0" stop-color="#00d8ff"/><stop offset="0.493" stop-color="#009fff"/><stop offset="1" stop-color="#1b4aff"/></linearGradient></defs><rect class="a" width="92" height="92" rx="12"/><path class="b" d="M426.593,285.866A20.013,20.013,0,0,0,406.869,270H382v6h24.869a13.945,13.945,0,1,1,.187,27.889H399.63l6.111,6h1.315a19.963,19.963,0,0,0,19.537-24.023Z" transform="translate(-358.497 -247)"/><path class="c" d="M426.62,322.38l-13.45-13.45-5.08-5.08L392.24,288H415v-6H382v36h6V292.24l34.38,34.38Z" transform="translate(-358.497 -247)"/></svg>