<svg xmlns="http://www.w3.org/2000/svg" xmlns:xlink="http://www.w3.org/1999/xlink" viewBox="0 0 207.91 56.62"><defs><style>.cls-1{isolation:isolate;}.cls-2{fill:#fff;}.cls-3{fill:url(#linear-gradient);}.cls-4{fill:url(#linear-gradient-2);}</style><linearGradient id="linear-gradient" x1="-472.91" y1="121.55" x2="-472.91" y2="120.12" gradientTransform="matrix(45.01, 0, 0, -39.89, 21308.47, 4841.34)" gradientUnits="userSpaceOnUse"><stop offset="0" stop-color="#fff"/><stop offset="1" stop-color="#051b5b"/></linearGradient><linearGradient id="linear-gradient-2" x1="-473.2" y1="121.99" x2="-472.36" y2="121.14" gradientTransform="matrix(44.62, 0, 0, -44.62, 21117.92, 5460.3)" gradientUnits="userSpaceOnUse"><stop offset="0" stop-color="#00d8ff"/><stop offset="0.49" stop-color="#009fff"/><stop offset="1" stop-color="#1b4aff"/></linearGradient></defs><g id="Layer_2" data-name="Layer 2"><g id="Layer_2-2" data-name="Layer 2"><g id="RONI_ANALYTICS.LLC" data-name="RONI ANALYTICS.LLC" class="cls-1"><g class="cls-1"><path class="cls-2" d="M58.7,11.91h7.67c5.21,0,8,3.11,8,7a6.46,6.46,0,0,1-3.72,5.88l4,5.32H70.85l-3.16-4.43a9.51,9.51,0,0,1-1.63.14H62v4.29H58.7ZM66.51,23a4.15,4.15,0,1,0,0-8.28H62V23Z"/><path class="cls-2" d="M76.67,21a9.55,9.55,0,1,1,9.55,9.35A9.32,9.32,0,0,1,76.67,21Zm15.71,0a6.17,6.17,0,1,0-12.32,0,6.16,6.16,0,1,0,12.32,0Z"/><path class="cls-2" d="M98.93,11.91h3.31l6.49,8.91c1.29,1.76,2.78,4.28,2.78,4.28V11.91h3.24V30.06h-3.36l-6.18-8.46c-1.57-2.15-3-4.62-3-4.62V30.06H98.93Z"/><path class="cls-2" d="M118.62,11.91h3.25V30.06h-3.25Z"/></g><g class="cls-1"><path class="cls-2" d="M65.25,35.91h3.08l8.18,18.15H73.2l-1.43-3.14h-10l-1.43,3.14H57.07Zm5.41,12.44-2.08-4.71c-.78-1.79-1.79-4.23-1.79-4.23s-1,2.41-1.79,4.23l-2.07,4.71Z"/><path class="cls-2" d="M78.75,35.91h3.3l6.5,8.91c1.28,1.76,2.77,4.28,2.77,4.28V35.91h3.25V54.06H91.21L85,45.6C83.45,43.45,82,41,82,41V54.06H78.75Z"/><path class="cls-2" d="M105,35.91h3.08l8.18,18.15h-3.31l-1.42-3.14h-10l-1.43,3.14h-3.3Zm5.41,12.44-2.08-4.71c-.78-1.79-1.79-4.23-1.79-4.23s-1,2.41-1.79,4.23l-2.07,4.71Z"/><path class="cls-2" d="M118.48,35.91h3.25V51.26h10.86v2.8H118.48Z"/><path class="cls-2" d="M139.48,45.69l-7-9.78h3.72l3.56,5c.81,1.12,1.37,2,1.37,2s.67-1,1.43-2l3.44-5h3.73l-7,9.75v8.4h-3.25Z"/><path class="cls-2" d="M157,38.71h-6.38v-2.8h16v2.8h-6.39V54.06H157Z"/><path class="cls-2" d="M169.19,35.91h3.24V54.06h-3.24Z"/><path class="cls-2" d="M175.6,45a9.31,9.31,0,0,1,9.55-9.33,9.48,9.48,0,0,1,6.1,2.13L189.37,40a6.41,6.41,0,1,0-4.2,11.45,6.53,6.53,0,0,0,4.57-1.79l2,2.24a9.66,9.66,0,0,1-6.58,2.49A9.31,9.31,0,0,1,175.6,45Z"/><path class="cls-2" d="M193.32,51.73l1.26-2.46a9,9,0,0,0,6,2.13c2,0,3.92-.93,3.92-2.58s-1.88-2.15-3.72-2.6c-3.34-.79-6.78-1.85-6.78-5.46,0-3.39,3.22-5.13,6.58-5.13a11,11,0,0,1,6.44,2l-1.26,2.5a9.27,9.27,0,0,0-5.18-1.52c-1.2,0-3.28.51-3.28,2.16,0,1.46,1.63,1.93,3.81,2.46,3.45.82,6.78,2.1,6.78,5.63,0,3.81-3.75,5.52-7.34,5.52A9.92,9.92,0,0,1,193.32,51.73Z"/></g></g><path id="Path_872" data-name="Path 872" class="cls-3" d="M44.59,15.87A20,20,0,0,0,24.87,0H0V6H24.87a13.95,13.95,0,1,1,.33,27.89H17.63l6.11,6h1.32a20,20,0,0,0,20-20A19.68,19.68,0,0,0,44.59,15.87Z"/><path id="Path_873" data-name="Path 873" class="cls-4" d="M44.62,52.38,31.17,38.93l-5.08-5.08L10.24,18H33V12H0V48H6V22.24L40.38,56.62Z"/></g></g></svg>